<?xml version="1.0" encoding="UTF-8"?>
<!--Generator: Apple Native CoreSVG 232.5-->
<!DOCTYPE svg
PUBLIC "-//W3C//DTD SVG 1.1//EN"
       "http://www.w3.org/Graphics/SVG/1.1/DTD/svg11.dtd">
<svg version="1.1" xmlns="http://www.w3.org/2000/svg" xmlns:xlink="http://www.w3.org/1999/xlink" width="8.70003" height="15.3458">
 <g>
  <rect height="15.3458" opacity="0" width="8.70003" x="0" y="0"/>
  <path d="M0 7.668C0 7.79965 0.0457048 7.88793 0.14688 7.98208L8.03164 15.22C8.10625 15.2973 8.20157 15.336 8.31486 15.336C8.52034 15.336 8.70003 15.1801 8.70003 14.9536C8.70003 14.8403 8.65589 14.752 8.59807 14.6914L0.947316 7.668L8.59807 0.644567C8.65589 0.576985 8.70003 0.492995 8.70003 0.382442C8.70003 0.155869 8.52034 0 8.31486 0C8.20157 0 8.10625 0.0316429 8.03164 0.106256L0.14688 7.35393C0.0457048 7.4383 0 7.53636 0 7.668Z" fill="#f27480"/>
 </g>
</svg>
