<?xml version="1.0" encoding="UTF-8"?>
<!--Generator: Apple Native CoreSVG 232.5-->
<!DOCTYPE svg
PUBLIC "-//W3C//DTD SVG 1.1//EN"
       "http://www.w3.org/Graphics/SVG/1.1/DTD/svg11.dtd">
<svg version="1.1" xmlns="http://www.w3.org/2000/svg" xmlns:xlink="http://www.w3.org/1999/xlink" width="16.5606" height="25.659">
 <g>
  <rect height="25.659" opacity="0" width="16.5606" x="0" y="0"/>
  <path d="M2.63049 22.7899L13.9301 22.7899C15.6547 22.7899 16.5606 21.8657 16.5606 20.1633L16.5606 9.86176C16.5606 8.1594 15.6547 7.23518 13.9301 7.23518L2.63049 7.23518C0.905864 7.23518 0 8.13831 0 9.86176L0 20.1633C0 21.8867 0.905864 22.7899 2.63049 22.7899ZM0.72855 20.1246L0.72855 9.90043C0.72855 8.62466 1.39222 7.96373 2.65705 7.96373L13.9008 7.96373C15.1277 7.96373 15.8391 8.62466 15.8391 9.90043L15.8391 20.1246C15.8391 21.4004 15.1277 22.0613 13.9008 22.0613L2.65705 22.0613C1.39222 22.0613 0.72855 21.4004 0.72855 20.1246Z" fill="#f27480"/>
  <path d="M10.2172 15.0848L10.2172 1.93636C10.2172 0.867982 9.34652 0 8.28244 0C7.21406 0 6.34335 0.867982 6.34335 1.93636L6.34335 15.0848C6.34335 16.1434 7.21406 17.0211 8.28244 17.0211C9.34652 17.0211 10.2172 16.1434 10.2172 15.0848Z" fill="#212125"/>
  <path d="M8.28244 15.4387C8.47737 15.4387 8.64183 15.277 8.64183 15.0848L8.64183 3.93052L8.61839 2.56411L9.77189 3.73557L11.6641 5.65509C11.7375 5.72697 11.8344 5.76994 11.9242 5.76994C12.0996 5.76994 12.2504 5.61759 12.2504 5.43516C12.2504 5.34257 12.2117 5.2707 12.1426 5.20155L8.53948 1.61016C8.45666 1.52735 8.37502 1.49414 8.28244 1.49414C8.19259 1.49414 8.10391 1.52735 8.01836 1.61016L4.40119 5.20155C4.33204 5.2707 4.2961 5.34257 4.2961 5.43516C4.2961 5.61759 4.44142 5.76994 4.62659 5.76994C4.7137 5.76994 4.81605 5.72697 4.88246 5.65509L6.77893 3.73557L7.94219 2.55708L7.91875 3.93052L7.91875 15.0848C7.91875 15.277 8.08048 15.4387 8.28244 15.4387Z" fill="#f27480"/>
 </g>
</svg>
