<?xml version="1.0" encoding="UTF-8"?>
<!--Generator: Apple Native CoreSVG 232.5-->
<!DOCTYPE svg
PUBLIC "-//W3C//DTD SVG 1.1//EN"
       "http://www.w3.org/Graphics/SVG/1.1/DTD/svg11.dtd">
<svg version="1.1" xmlns="http://www.w3.org/2000/svg" xmlns:xlink="http://www.w3.org/1999/xlink" width="26.9717" height="26.5946">
 <g>
  <rect height="26.5946" opacity="0" width="26.9717" x="0" y="0"/>
  <path d="M13.4815 25.1984C13.8691 25.1984 14.271 25.1828 14.6445 25.132L15.2612 26.3132C15.3726 26.5412 15.5322 26.6227 15.8477 26.5861C16.1353 26.5514 16.2285 26.425 16.2686 26.1252L16.4673 24.8151C17.2095 24.6354 17.9482 24.3595 18.6362 24.0275L19.603 24.8932C19.7998 25.069 19.961 25.1056 20.2486 24.9733C20.4732 24.8498 20.5479 24.6921 20.4868 24.38L20.2256 23.112C20.8613 22.6789 21.4585 22.1882 21.9981 21.6134L23.1948 22.1135C23.4385 22.2214 23.5996 22.2184 23.8316 21.9499C24.0479 21.7443 24.0249 21.5798 23.8716 21.3254L23.1748 20.2052C23.6289 19.5817 24.0274 18.8971 24.3257 18.2145L25.6514 18.279C25.9424 18.2946 26.0845 18.1906 26.168 17.924C26.2656 17.654 26.2066 17.4928 25.9854 17.3151L24.9629 16.4928C25.1655 15.7629 25.2876 14.9909 25.3486 14.1999L26.5943 13.8097C26.8853 13.7121 26.9717 13.568 26.9717 13.2912C26.9717 13.0143 26.8853 12.8615 26.5943 12.7692L25.3486 12.3825C25.2876 11.5915 25.1567 10.8229 24.9629 10.0895L25.9854 9.26726C26.1768 9.09831 26.2393 8.95817 26.168 8.67057C26.0845 8.40397 25.9424 8.29996 25.6514 8.31559L24.3257 8.36441C24.0098 7.66422 23.6289 6.99528 23.1748 6.3737L23.8716 5.25358C24.0161 5.01481 24.0357 4.85025 23.8316 4.64469C23.5996 4.37613 23.4385 4.37662 23.1948 4.48111L21.9981 4.96012C21.4585 4.40641 20.8613 3.91227 20.2256 3.47917L20.4868 2.21452C20.5513 1.89909 20.4732 1.74137 20.2486 1.62125C19.961 1.47672 19.8086 1.50455 19.603 1.69254L18.6362 2.54606C17.9482 2.22819 17.2095 1.95915 16.4673 1.77604L16.2686 0.469397C16.2285 0.169591 16.1143 0.043122 15.8267 0.00845297C15.5322-0.0281681 15.3691 0.053377 15.2612 0.269199L14.6445 1.45915C14.271 1.41716 13.8691 1.39616 13.4815 1.39616C13.1079 1.39616 12.7271 1.41716 12.336 1.45915L11.7246 0.269199C11.6079 0.053377 11.4536-0.0281681 11.1328 0.00845297C10.854 0.043122 10.7573 0.169591 10.7119 0.469397L10.5186 1.75847C9.77637 1.95915 9.03224 2.20719 8.34963 2.54606L7.37404 1.70133C7.16847 1.50455 7.00733 1.48892 6.73731 1.62125C6.50391 1.74137 6.42578 1.89909 6.49903 2.21452L6.75147 3.47917C6.11915 3.91227 5.51857 4.40641 4.98781 4.96012L3.79103 4.48111C3.53858 4.37662 3.38086 4.37613 3.14893 4.64469C2.94141 4.85025 2.95215 5.01481 3.09668 5.24479L3.81104 6.3737C3.36036 6.99528 2.9673 7.66422 2.65138 8.36441L1.32911 8.31559C1.03809 8.29996 0.910157 8.40397 0.809082 8.67057C0.702637 8.95817 0.773928 9.08073 1.00049 9.26726L2.02296 10.0895C1.82911 10.8229 1.68946 11.5915 1.63527 12.3615L0.382817 12.7692C0.100589 12.8615 0 12.9967 0 13.2912C0 13.5768 0.100589 13.7121 0.382817 13.8097L1.63527 14.2087C1.68946 14.9909 1.81153 15.7629 2.02296 16.4928L1.00049 17.3151C0.791505 17.4718 0.723633 17.6242 0.809082 17.924C0.89258 18.1906 1.03809 18.2946 1.32911 18.279L2.65138 18.2145C2.95851 18.8971 3.36036 19.5817 3.79346 20.2052L3.11426 21.3254C2.95215 21.5798 2.93262 21.7443 3.14893 21.9499C3.38086 22.2184 3.53858 22.2214 3.79103 22.1135L4.98781 21.6134C5.51857 22.1882 6.11915 22.6789 6.75147 23.112L6.49903 24.38C6.4292 24.6921 6.50391 24.8498 6.73731 24.9733C7.01612 25.1056 7.16847 25.069 7.37404 24.8932L8.33205 24.0275C9.03224 24.3595 9.77637 24.6354 10.5186 24.8327L10.7119 26.1252C10.7573 26.425 10.854 26.5514 11.1504 26.5861C11.4536 26.6227 11.6045 26.5412 11.7246 26.3132L12.336 25.132C12.6973 25.1828 13.1079 25.1984 13.4815 25.1984ZM13.4815 24.3307C7.3721 24.3307 2.60259 19.4586 2.60259 13.2946C2.60259 7.12714 7.3721 2.26387 13.4815 2.26387C19.5908 2.26387 24.3779 7.12714 24.3779 13.2946C24.3779 19.4586 19.5908 24.3307 13.4815 24.3307ZM11.8286 11.2804L12.542 10.8654L7.99955 3.02068L7.27247 3.41865ZM16.0235 13.6242L25.1069 13.6242L25.1035 12.8053L16.0235 12.8053ZM12.7036 15.6833L11.9936 15.2614L7.28223 23.1183L8.00589 23.5231ZM13.501 16.0568C15.0303 16.0568 16.2652 14.822 16.2652 13.298C16.2652 11.7653 15.0303 10.5304 13.501 10.5304C11.977 10.5304 10.7422 11.7653 10.7422 13.298C10.7422 14.822 11.977 16.0568 13.501 16.0568ZM13.501 15.2057C12.4302 15.2057 11.5933 14.3654 11.5933 13.298C11.5933 12.2219 12.4302 11.3815 13.501 11.3815C14.5771 11.3815 15.4141 12.2219 15.4141 13.298C15.4141 14.3654 14.5771 15.2057 13.501 15.2057Z" fill="#fd8896"/>
 </g>
</svg>
