<?xml version="1.0" encoding="UTF-8"?>
<!--Generator: Apple Native CoreSVG 232.5-->
<!DOCTYPE svg
PUBLIC "-//W3C//DTD SVG 1.1//EN"
       "http://www.w3.org/Graphics/SVG/1.1/DTD/svg11.dtd">
<svg version="1.1" xmlns="http://www.w3.org/2000/svg" xmlns:xlink="http://www.w3.org/1999/xlink" width="12.1797" height="19.9176">
 <g>
  <rect height="19.9176" opacity="0" width="12.1797" x="0" y="0"/>
  <path d="M0.683608 19.8997C0.951195 19.8997 1.15706 19.7739 1.50161 19.4235L6.02307 14.7567C6.06486 14.7219 6.1176 14.7219 6.15666 14.7567L10.6781 19.4235C11.0227 19.7668 11.2215 19.8997 11.4961 19.8997C11.9114 19.8997 12.1797 19.6036 12.1797 19.1371L12.1797 2.38088C12.1797 0.820708 11.3645 0 9.81682 0L2.36291 0C0.815239 0 0 0.820708 0 2.38088L0 19.1371C0 19.6036 0.268364 19.8997 0.683608 19.8997Z" fill="#f27480"/>
 </g>
</svg>
