<?xml version="1.0" encoding="UTF-8"?>
<!--Generator: Apple Native CoreSVG 232.5-->
<!DOCTYPE svg
PUBLIC "-//W3C//DTD SVG 1.1//EN"
       "http://www.w3.org/Graphics/SVG/1.1/DTD/svg11.dtd">
<svg version="1.1" xmlns="http://www.w3.org/2000/svg" xmlns:xlink="http://www.w3.org/1999/xlink" width="24.3475" height="25.8252">
 <g>
  <rect height="25.8252" opacity="0" width="24.3475" x="0" y="0"/>
  <path d="M2.10412 25.8211L22.2434 25.8211C23.5154 25.8211 24.3475 25.1309 24.3475 24.0943C24.3475 20.3572 19.6793 15.2057 12.1717 15.2057C4.66817 15.2057 0 20.3572 0 24.0943C0 25.1309 0.832036 25.8211 2.10412 25.8211ZM12.2074 12.5731C15.4055 12.5731 17.9086 9.80274 17.9086 6.21446C17.9086 2.81777 15.3633 0 12.2074 0C9.05157 0 6.4957 2.82363 6.4957 6.22266C6.4957 9.80274 9.00528 12.5731 12.2074 12.5731Z" fill="#ffffff"/>
 </g>
</svg>
