<?xml version="1.0" encoding="UTF-8"?>
<!--Generator: Apple Native CoreSVG 232.5-->
<!DOCTYPE svg
PUBLIC "-//W3C//DTD SVG 1.1//EN"
       "http://www.w3.org/Graphics/SVG/1.1/DTD/svg11.dtd">
<svg version="1.1" xmlns="http://www.w3.org/2000/svg" xmlns:xlink="http://www.w3.org/1999/xlink" width="18.2696" height="29.8764">
 <g>
  <rect height="29.8764" opacity="0" width="18.2696" x="0" y="0"/>
  <path d="M1.02541 29.8495C1.42679 29.8495 1.73559 29.6608 2.25242 29.1352L9.0346 22.135C9.09729 22.0829 9.1764 22.0829 9.23499 22.135L16.0172 29.1352C16.534 29.6503 16.8323 29.8495 17.2442 29.8495C17.867 29.8495 18.2696 29.4053 18.2696 28.7057L18.2696 3.57131C18.2696 1.23106 17.0467 0 14.7252 0L3.54436 0C1.22286 0 0 1.23106 0 3.57131L0 28.7057C0 29.4053 0.402546 29.8495 1.02541 29.8495ZM1.58325 28.2568C1.33599 28.5252 1.08052 28.456 1.08052 28.1103L1.08052 3.61116C1.08052 1.94008 1.92953 1.08052 3.59827 1.08052L14.6754 1.08052C16.3401 1.08052 17.1891 1.94008 17.1891 3.61116L17.1891 28.1103C17.1891 28.456 16.9483 28.5252 16.6863 28.2568L9.63696 20.9865C9.35804 20.7012 8.91155 20.7012 8.63264 20.9865Z" fill="#ff375f"/>
 </g>
</svg>
