<?xml version="1.0" encoding="UTF-8"?>
<!--Generator: Apple Native CoreSVG 232.5-->
<!DOCTYPE svg
PUBLIC "-//W3C//DTD SVG 1.1//EN"
       "http://www.w3.org/Graphics/SVG/1.1/DTD/svg11.dtd">
<svg version="1.1" xmlns="http://www.w3.org/2000/svg" xmlns:xlink="http://www.w3.org/1999/xlink" width="19.1746" height="17.3231">
 <g>
  <rect height="17.3231" opacity="0" width="19.1746" x="0" y="0"/>
  <path d="M2.63049 17.3231L16.5398 17.3231C18.2715 17.3231 19.1746 16.3989 19.1746 14.6965L19.1746 2.66017C19.1746 0.957816 18.2715 0.0335932 16.5398 0.0335932L2.63049 0.0335932C0.905864 0.0335932 0 0.933988 0 2.66017L0 14.6965C0 16.4227 0.905864 17.3231 2.63049 17.3231ZM2.62462 16.5945C1.37581 16.5945 0.72855 15.9457 0.72855 14.693L0.72855 6.12382C0.72855 4.87383 1.37581 4.22228 2.62462 4.22228L16.5473 4.22228C17.7539 4.22228 18.4461 4.87383 18.4461 6.12382L18.4461 14.693C18.4461 15.9457 17.7539 16.5945 16.5473 16.5945ZM7.60704 7.63673L8.18321 7.63673C8.44064 7.63673 8.48478 7.59532 8.48478 7.34493L8.48478 6.77579C8.48478 6.52539 8.44064 6.48125 8.18321 6.48125L7.60704 6.48125C7.34962 6.48125 7.30274 6.52539 7.30274 6.77579L7.30274 7.34493C7.30274 7.59532 7.34962 7.63673 7.60704 7.63673ZM11.0039 7.63673L11.5801 7.63673C11.8375 7.63673 11.8844 7.59532 11.8844 7.34493L11.8844 6.77579C11.8844 6.52539 11.8375 6.48125 11.5801 6.48125L11.0039 6.48125C10.7465 6.48125 10.6996 6.52539 10.6996 6.77579L10.6996 7.34493C10.6996 7.59532 10.7465 7.63673 11.0039 7.63673ZM14.4008 7.63673L14.9769 7.63673C15.2344 7.63673 15.2813 7.59532 15.2813 7.34493L15.2813 6.77579C15.2813 6.52539 15.2344 6.48125 14.9769 6.48125L14.4008 6.48125C14.1434 6.48125 14.1062 6.52539 14.1062 6.77579L14.1062 7.34493C14.1062 7.59532 14.1434 7.63673 14.4008 7.63673ZM4.21017 10.9848L4.78361 10.9848C5.04377 10.9848 5.08791 10.9434 5.08791 10.693L5.08791 10.1238C5.08791 9.87344 5.04377 9.83203 4.78361 9.83203L4.21017 9.83203C3.95001 9.83203 3.90587 9.87344 3.90587 10.1238L3.90587 10.693C3.90587 10.9434 3.95001 10.9848 4.21017 10.9848ZM7.60704 10.9848L8.18321 10.9848C8.44064 10.9848 8.48478 10.9434 8.48478 10.693L8.48478 10.1238C8.48478 9.87344 8.44064 9.83203 8.18321 9.83203L7.60704 9.83203C7.34962 9.83203 7.30274 9.87344 7.30274 10.1238L7.30274 10.693C7.30274 10.9434 7.34962 10.9848 7.60704 10.9848ZM11.0039 10.9848L11.5801 10.9848C11.8375 10.9848 11.8844 10.9434 11.8844 10.693L11.8844 10.1238C11.8844 9.87344 11.8375 9.83203 11.5801 9.83203L11.0039 9.83203C10.7465 9.83203 10.6996 9.87344 10.6996 10.1238L10.6996 10.693C10.6996 10.9434 10.7465 10.9848 11.0039 10.9848ZM14.4008 10.9848L14.9769 10.9848C15.2344 10.9848 15.2813 10.9434 15.2813 10.693L15.2813 10.1238C15.2813 9.87344 15.2344 9.83203 14.9769 9.83203L14.4008 9.83203C14.1434 9.83203 14.1062 9.87344 14.1062 10.1238L14.1062 10.693C14.1062 10.9434 14.1434 10.9848 14.4008 10.9848ZM4.21017 14.3355L4.78361 14.3355C5.04377 14.3355 5.08791 14.2914 5.08791 14.048L5.08791 13.4719C5.08791 13.2215 5.04377 13.1801 4.78361 13.1801L4.21017 13.1801C3.95001 13.1801 3.90587 13.2215 3.90587 13.4719L3.90587 14.048C3.90587 14.2914 3.95001 14.3355 4.21017 14.3355ZM7.60704 14.3355L8.18321 14.3355C8.44064 14.3355 8.48478 14.2914 8.48478 14.048L8.48478 13.4719C8.48478 13.2215 8.44064 13.1801 8.18321 13.1801L7.60704 13.1801C7.34962 13.1801 7.30274 13.2215 7.30274 13.4719L7.30274 14.048C7.30274 14.2914 7.34962 14.3355 7.60704 14.3355ZM11.0039 14.3355L11.5801 14.3355C11.8375 14.3355 11.8844 14.2914 11.8844 14.048L11.8844 13.4719C11.8844 13.2215 11.8375 13.1801 11.5801 13.1801L11.0039 13.1801C10.7465 13.1801 10.6996 13.2215 10.6996 13.4719L10.6996 14.048C10.6996 14.2914 10.7465 14.3355 11.0039 14.3355Z" fill="#f27480"/>
 </g>
</svg>
