<?xml version="1.0" encoding="UTF-8"?>
<!--Generator: Apple Native CoreSVG 232.5-->
<!DOCTYPE svg
PUBLIC "-//W3C//DTD SVG 1.1//EN"
       "http://www.w3.org/Graphics/SVG/1.1/DTD/svg11.dtd">
<svg version="1.1" xmlns="http://www.w3.org/2000/svg" xmlns:xlink="http://www.w3.org/1999/xlink" width="19.2979" height="19.3101">
 <g>
  <rect height="19.3101" opacity="0" width="19.2979" x="0" y="0"/>
  <path d="M0 9.64894C0 9.91312 0.21925 10.1202 0.471216 10.1202L9.17773 10.1202L9.17773 18.8179C9.17773 19.0786 9.38477 19.2979 9.64894 19.2979C9.91312 19.2979 10.1236 19.0786 10.1236 18.8179L10.1236 10.1202L18.8179 10.1202C19.0786 10.1202 19.2979 9.91312 19.2979 9.64894C19.2979 9.38477 19.0786 9.16552 18.8179 9.16552L10.1236 9.16552L10.1236 0.471216C10.1236 0.21925 9.91312 0 9.64894 0C9.38477 0 9.17773 0.21925 9.17773 0.471216L9.17773 9.16552L0.471216 9.16552C0.21925 9.16552 0 9.38477 0 9.64894Z" fill="#fd8896"/>
 </g>
</svg>
