<?xml version="1.0" encoding="UTF-8"?>
<!--Generator: Apple Native CoreSVG 232.5-->
<!DOCTYPE svg
PUBLIC "-//W3C//DTD SVG 1.1//EN"
       "http://www.w3.org/Graphics/SVG/1.1/DTD/svg11.dtd">
<svg version="1.1" xmlns="http://www.w3.org/2000/svg" xmlns:xlink="http://www.w3.org/1999/xlink" width="47.8887" height="47.8956">
 <g>
  <rect height="47.8956" opacity="0" width="47.8887" x="0" y="0"/>
  <path d="M23.9356 47.8712C37.1016 47.8712 47.8887 37.0772 47.8887 23.9356C47.8887 10.7871 37.0948 0 23.9287 0C10.7871 0 0 10.7871 0 23.9356C0 37.0772 10.794 47.8712 23.9356 47.8712Z" fill="#ff453a"/>
  <path d="M16.9043 34.9913C16.375 34.9913 16.0088 34.6387 16.0088 34.1826C16.0088 33.9512 16.0957 33.7852 16.2197 33.5674L22.8096 23.8858L16.375 14.3546C16.2236 14.1094 16.1367 13.9434 16.1367 13.6983C16.1367 13.2002 16.5303 12.8203 17.0244 12.8203C17.4571 12.8203 17.6817 12.9795 17.9337 13.3457L23.9307 22.4101L24.0528 22.4101L30.082 13.3526C30.3203 12.9795 30.5518 12.8203 30.9288 12.8203C31.4581 12.8203 31.8312 13.1797 31.8312 13.6358C31.8312 13.8536 31.7442 14.0401 31.6065 14.2579L25.0304 23.9024L31.505 33.4873C31.6534 33.7158 31.7472 33.8887 31.7472 34.1201C31.7472 34.6387 31.3673 34.9913 30.8526 34.9913C30.4405 34.9913 30.2227 34.8389 29.957 34.4522L23.9571 25.3946L23.8243 25.3946L17.7647 34.4522C17.5098 34.8389 17.2881 34.9913 16.9043 34.9913Z" fill="#1e1e1e"/>
 </g>
</svg>
