<?xml version="1.0" encoding="UTF-8"?>
<!--Generator: Apple Native CoreSVG 232.5-->
<!DOCTYPE svg
PUBLIC "-//W3C//DTD SVG 1.1//EN"
       "http://www.w3.org/Graphics/SVG/1.1/DTD/svg11.dtd">
<svg version="1.1" xmlns="http://www.w3.org/2000/svg" xmlns:xlink="http://www.w3.org/1999/xlink" width="18.5422" height="18.5807">
 <g>
  <rect height="18.5807" opacity="0" width="18.5422" x="0" y="0"/>
  <path d="M0.141184 18.4395C0.331135 18.6261 0.626074 18.6261 0.812607 18.4395L9.27547 9.98547L17.7295 18.4395C17.9161 18.6261 18.2144 18.6295 18.401 18.4395C18.5875 18.2496 18.5875 17.9581 18.401 17.7715L9.94689 9.31404L18.401 0.85118C18.5875 0.664647 18.5909 0.369709 18.401 0.183176C18.211-0.00677526 17.9161-0.00677526 17.7295 0.183176L9.27547 8.63725L0.812607 0.183176C0.626074-0.00677526 0.327717-0.0101936 0.141184 0.183176C-0.0453484 0.373127-0.0453484 0.664647 0.141184 0.85118L8.59526 9.31404L0.141184 17.7715C-0.0453484 17.9581-0.0487667 18.253 0.141184 18.4395Z" fill="#ff453a"/>
 </g>
</svg>
