<?xml version="1.0" encoding="UTF-8"?>
<!--Generator: Apple Native CoreSVG 232.5-->
<!DOCTYPE svg
PUBLIC "-//W3C//DTD SVG 1.1//EN"
       "http://www.w3.org/Graphics/SVG/1.1/DTD/svg11.dtd">
<svg version="1.1" xmlns="http://www.w3.org/2000/svg" xmlns:xlink="http://www.w3.org/1999/xlink" width="24.7893" height="26.2155">
 <g>
  <rect height="26.2155" opacity="0" width="24.7893" x="0" y="0"/>
  <path d="M2.5975 26.2114L22.1812 26.2114C23.9485 26.2114 24.7893 25.616 24.7893 24.2895C24.7893 20.4938 20.025 15.1951 12.3914 15.1951C4.75371 15.1951 0 20.4938 0 24.2895C0 25.616 0.830287 26.2114 2.5975 26.2114ZM2.45744 25.1596C1.4227 25.1596 1.09282 24.9094 1.09282 24.2326C1.09282 20.9614 5.27757 16.2575 12.3914 16.2575C19.5012 16.2575 23.6965 20.9614 23.6965 24.2326C23.6965 24.9094 23.3707 25.1596 22.336 25.1596ZM12.4231 12.9633C15.7512 12.9633 18.3504 10.1045 18.3504 6.40958C18.3504 2.88106 15.6815 0 12.4231 0C9.15177 0 6.4957 2.90801 6.4957 6.41779C6.4957 10.1086 9.09493 12.9633 12.4231 12.9633ZM12.4231 11.9115C9.71488 11.9115 7.58853 9.52734 7.58853 6.41779C7.58853 3.47874 9.74886 1.05181 12.4231 1.05181C15.0803 1.05181 17.2576 3.45589 17.2576 6.40958C17.2576 9.52968 15.1353 11.9115 12.4231 11.9115Z" fill="#ffffff"/>
 </g>
</svg>
