<?xml version="1.0" encoding="UTF-8"?>
<!--Generator: Apple Native CoreSVG 232.5-->
<!DOCTYPE svg
PUBLIC "-//W3C//DTD SVG 1.1//EN"
       "http://www.w3.org/Graphics/SVG/1.1/DTD/svg11.dtd">
<svg version="1.1" xmlns="http://www.w3.org/2000/svg" xmlns:xlink="http://www.w3.org/1999/xlink" width="18.4774" height="18.6489">
 <g>
  <rect height="18.6489" opacity="0" width="18.4774" x="0" y="0"/>
  <path d="M0 7.3008C0 11.3164 3.28516 14.6016 7.3008 14.6016C9.03517 14.6016 10.6231 13.9914 11.8742 12.968L17.3258 18.4434C17.4379 18.5555 17.6113 18.6418 17.7973 18.6418C18.2223 18.6418 18.4774 18.3195 18.4774 17.9535C18.4774 17.7816 18.4094 17.618 18.2746 17.4902L12.8383 12.0317C13.9356 10.7582 14.6016 9.09924 14.6016 7.3008C14.6016 3.28516 11.3164 0 7.3008 0C3.28516 0 0 3.28516 0 7.3008ZM0.748866 7.3008C0.748866 3.6969 3.6969 0.741835 7.3008 0.741835C10.9047 0.741835 13.8527 3.6969 13.8527 7.3008C13.8527 10.9047 10.9047 13.8527 7.3008 13.8527C3.6969 13.8527 0.748866 10.9047 0.748866 7.3008Z" fill="#ffffff" fill-opacity="0.55"/>
 </g>
</svg>
