<?xml version="1.0" encoding="UTF-8"?>
<!--Generator: Apple Native CoreSVG 232.5-->
<!DOCTYPE svg
PUBLIC "-//W3C//DTD SVG 1.1//EN"
       "http://www.w3.org/Graphics/SVG/1.1/DTD/svg11.dtd">
<svg version="1.1" xmlns="http://www.w3.org/2000/svg" xmlns:xlink="http://www.w3.org/1999/xlink" width="27.8262" height="25.9108">
 <g>
  <rect height="25.9108" opacity="0" width="27.8262" x="0" y="0"/>
  <path d="M0 8.80258C0 14.7264 5.47206 20.5372 13.2275 25.663C13.4297 25.7901 13.7004 25.9108 13.9131 25.9108C14.1258 25.9108 14.3965 25.7901 14.5922 25.663C22.3542 20.5372 27.8262 14.7264 27.8262 8.80258C27.8262 4.0178 24.5198 0.587708 20.0795 0.587708C17.5172 0.587708 15.0774 2.03497 13.9131 4.29726C12.7571 2.03907 10.309 0.587708 7.7467 0.587708C3.30646 0.587708 0 4.0178 0 8.80258ZM1.09282 8.80258C1.09282 4.60025 3.90766 1.66999 7.7385 1.66999C10.408 1.66999 12.2537 3.32057 13.3283 5.2811C13.534 5.62447 13.6881 5.74342 13.9131 5.74342C14.1381 5.74342 14.284 5.62037 14.4873 5.2811C15.593 3.32878 17.4117 1.66999 20.0877 1.66999C23.9186 1.66999 26.7334 4.60025 26.7334 8.80258C26.7334 14.3467 21.0398 20.0625 14.1153 24.6832C14.0321 24.7436 13.9717 24.7852 13.9131 24.7852C13.8545 24.7852 13.7942 24.7436 13.7151 24.6832C6.78638 20.0625 1.09282 14.3467 1.09282 8.80258Z" fill="#ffffff"/>
 </g>
</svg>
