<?xml version="1.0" encoding="UTF-8"?>
<!--Generator: Apple Native CoreSVG 232.5-->
<!DOCTYPE svg
PUBLIC "-//W3C//DTD SVG 1.1//EN"
       "http://www.w3.org/Graphics/SVG/1.1/DTD/svg11.dtd">
<svg version="1.1" xmlns="http://www.w3.org/2000/svg" xmlns:xlink="http://www.w3.org/1999/xlink" width="47.8887" height="47.8956">
 <g>
  <rect height="47.8956" opacity="0" width="47.8887" x="0" y="0"/>
  <path d="M23.9356 47.8712C37.1016 47.8712 47.8887 37.0772 47.8887 23.9356C47.8887 10.7871 37.0948 0 23.9287 0C10.7871 0 0 10.7871 0 23.9356C0 37.0772 10.794 47.8712 23.9356 47.8712ZM23.9356 46.0058C11.7442 46.0058 1.87216 36.127 1.87216 23.9356C1.87216 11.7442 11.7374 1.84775 23.9287 1.84775C36.1201 1.84775 46.0234 11.7442 46.0234 23.9356C46.0234 36.127 36.127 46.0058 23.9356 46.0058Z" fill="#ffffff"/>
  <path d="M21.1163 30.7921C26.4961 30.7921 30.9034 26.42 30.9034 21.0225C30.9034 15.6426 26.4961 11.2178 21.1163 11.2178C15.7364 11.2178 11.3291 15.6494 11.3291 21.0225C11.3291 26.4131 15.7364 30.7921 21.1163 30.7921ZM21.1514 29.1064C16.6954 29.1064 13.0147 25.461 13.0147 21.0049C13.0147 16.5313 16.6954 12.8683 21.1514 12.8683C25.625 12.8683 29.2461 16.5245 29.2461 21.0049C29.2461 25.461 25.625 29.1064 21.1514 29.1064ZM35.4268 36.627C36.1065 36.627 36.5254 36.1592 36.5254 35.5186C36.5254 35.1328 36.3448 34.9014 36.0948 34.6269L28.0284 26.4941L26.3623 28.043L34.414 36.1582C34.7265 36.4776 35 36.627 35.4268 36.627Z" fill="#ffffff"/>
 </g>
</svg>
