<?xml version="1.0" encoding="UTF-8"?>
<!--Generator: Apple Native CoreSVG 232.5-->
<!DOCTYPE svg
PUBLIC "-//W3C//DTD SVG 1.1//EN"
       "http://www.w3.org/Graphics/SVG/1.1/DTD/svg11.dtd">
<svg version="1.1" xmlns="http://www.w3.org/2000/svg" xmlns:xlink="http://www.w3.org/1999/xlink" width="23.9444" height="23.9478">
 <g>
  <rect height="23.9478" opacity="0" width="23.9444" x="0" y="0"/>
  <path d="M11.9678 23.9356C18.5508 23.9356 23.9444 18.5386 23.9444 11.9678C23.9444 5.39356 18.5474 0 11.9644 0C5.39356 0 0 5.39356 0 11.9678C0 18.5386 5.39698 23.9356 11.9678 23.9356Z" fill="#ffffff" fill-opacity="0.85"/>
  <path d="M8.45216 17.4956C8.1875 17.4956 8.00439 17.3194 8.00439 17.0913C8.00439 16.9756 8.04784 16.8926 8.10986 16.7837L11.4048 11.9429L8.1875 7.17728C8.11181 7.05472 8.06835 6.97171 8.06835 6.84914C8.06835 6.60011 8.26514 6.41016 8.51222 6.41016C8.72854 6.41016 8.84085 6.48975 8.96683 6.67287L11.9654 11.2051L12.0264 11.2051L15.041 6.67628C15.1602 6.48975 15.2759 6.41016 15.4644 6.41016C15.729 6.41016 15.9156 6.58985 15.9156 6.81789C15.9156 6.92678 15.8721 7.02005 15.8033 7.12894L12.5152 11.9512L15.7525 16.7436C15.8267 16.8579 15.8736 16.9443 15.8736 17.0601C15.8736 17.3194 15.6836 17.4956 15.4263 17.4956C15.2202 17.4956 15.1113 17.4195 14.9785 17.2261L11.9785 12.6973L11.9121 12.6973L8.88236 17.2261C8.75491 17.4195 8.64406 17.4956 8.45216 17.4956Z" fill="#1e1e1e"/>
 </g>
</svg>
