<?xml version="1.0" encoding="UTF-8"?>
<!--Generator: Apple Native CoreSVG 232.5-->
<!DOCTYPE svg
PUBLIC "-//W3C//DTD SVG 1.1//EN"
       "http://www.w3.org/Graphics/SVG/1.1/DTD/svg11.dtd">
<svg version="1.1" xmlns="http://www.w3.org/2000/svg" xmlns:xlink="http://www.w3.org/1999/xlink" width="27.7161" height="27.9733">
 <g>
  <rect height="27.9733" opacity="0" width="27.7161" x="0" y="0"/>
  <path d="M0 10.9512C0 16.9747 4.92775 21.9024 10.9512 21.9024C13.5528 21.9024 15.9346 20.9872 17.8114 19.452L25.9887 27.6651C26.1568 27.8332 26.417 27.9627 26.6959 27.9627C27.3334 27.9627 27.7161 27.4793 27.7161 26.9303C27.7161 26.6725 27.6141 26.4269 27.4119 26.2353L19.2575 18.0475C20.9034 16.1373 21.9024 13.6489 21.9024 10.9512C21.9024 4.92775 16.9747 0 10.9512 0C4.92775 0 0 4.92775 0 10.9512ZM1.1233 10.9512C1.1233 5.54536 5.54536 1.11275 10.9512 1.11275C16.357 1.11275 20.7791 5.54536 20.7791 10.9512C20.7791 16.357 16.357 20.7791 10.9512 20.7791C5.54536 20.7791 1.1233 16.357 1.1233 10.9512Z" fill="#ffffff"/>
 </g>
</svg>
